# xmcd
#
# Track frame offsets:
#	150
#	839
#	17488
#	30949
#	42345
#	64983
#	84815
#	101270
#	120162
#	139085
#	168323
#	188277
#	210261
#	229611
#
# Disc length: 3276 seconds
#
# Revision: 0
# Processed by: cddbd v1.5.2PL0 Copyright (c) Steve Scherf et al.
# Submitted via: EasyCDDAExtractor 12.0.1.1
#
DISCID=8a0cca0e
DTITLE=The-Dream - Love vs. Money
DYEAR=2009
DGENRE=R&B
TTITLE0=Money (intro)
TTITLE1=Rockin' That Shit
TTITLE2=Walkin' on the Moon (feat. Kanye West)
TTITLE3=My Love (feat. Mariah Carey)
TTITLE4=Put It Down
TTITLE5=Sweat It Out
TTITLE6=Take U Home 2 My Mama
TTITLE7=Love vs. Money
TTITLE8=Love vs. Money, Part 2
TTITLE9=Fancy
TTITLE10=Right Side of My Brain
TTITLE11=Mr. Yeah
TTITLE12=Kelly's 12 Play
TTITLE13=Let Me See the Booty (feat. Lil Jon)
EXTD=
EXTT0=
EXTT1=
EXTT2=
EXTT3=
EXTT4=
EXTT5=
EXTT6=
EXTT7=
EXTT8=
EXTT9=
EXTT10=
EXTT11=
EXTT12=
EXTT13=
PLAYORDER=
